<svg width="844" height="625" viewBox="0 0 844 625" fill="none" xmlns="http://www.w3.org/2000/svg">
<g id="xbox-svg">
<g id="xbox-logo" filter="url(#filter0_dd_13_59)">
<path id="Vector" d="M375.967 29.0133C357.345 28.6523 335.648 35.7033 324.618 43.8403C341.434 42.3933 354.271 46.9133 375.787 57.9433C397.015 46.5253 410.141 42.3933 426.594 43.8403C413.034 34.2573 393.687 29.0133 375.967 29.0133Z" fill="#F7F7F7"/>
<path id="Vector_2" d="M349.208 82.8943C332.032 66.4413 317.873 55.1743 307.803 56.8583C277.97 81.8093 263.687 143.284 298.582 185.774C292.616 162.269 320.279 119.236 349.208 82.8943Z" fill="#F7F7F7"/>
<path id="Vector_3" d="M442.686 191.56C440.879 174.202 411.587 135.871 375.787 107.484C345.05 130.808 310.154 171.128 308.707 192.644C307.919 204.362 342.699 224.286 375.606 224.286C409.237 224.286 444.004 204.216 442.686 191.56Z" fill="#F7F7F7"/>
<path id="Vector_4" d="M401.282 82.8943C418.458 66.4413 432.616 55.1743 442.687 56.8583C472.52 81.8093 486.803 143.284 451.908 185.774C457.874 162.269 430.211 119.236 401.282 82.8943Z" fill="#F7F7F7"/>
<path id="Vector_5" d="M375.967 29.0133C357.345 28.6523 335.648 35.7033 324.618 43.8403C341.434 42.3933 354.271 46.9133 375.787 57.9433C397.015 46.5253 410.141 42.3933 426.594 43.8403C413.034 34.2573 393.687 29.0133 375.967 29.0133Z" stroke="#F7F7F7" stroke-linecap="round" stroke-linejoin="round"/>
<path id="Vector_6" d="M349.208 82.8943C332.032 66.4413 317.873 55.1743 307.803 56.8583C277.97 81.8093 263.687 143.284 298.582 185.774C292.616 162.269 320.279 119.236 349.208 82.8943Z" stroke="#F7F7F7" stroke-linecap="round" stroke-linejoin="round"/>
<path id="Vector_7" d="M442.686 191.56C440.879 174.202 411.587 135.871 375.787 107.484C345.05 130.808 310.154 171.128 308.707 192.644C307.919 204.362 342.699 224.286 375.606 224.286C409.237 224.286 444.004 204.216 442.686 191.56Z" stroke="#F7F7F7" stroke-linecap="round" stroke-linejoin="round"/>
<path id="Vector_8" d="M401.282 82.8943C418.458 66.4413 432.616 55.1743 442.687 56.8583C472.52 81.8093 486.803 143.284 451.908 185.774C457.874 162.269 430.211 119.236 401.282 82.8943Z" stroke="#F7F7F7" stroke-linecap="round" stroke-linejoin="round"/>
</g>
<g id="xbox-x1">
<path id="Vector_9" d="M182.505 254.662H162.435L203.117 310.893L159 371.825H178.889L213.242 324.815L247.415 371.825H267.485L223.368 310.893L264.049 254.662H244.16L213.242 297.151L182.505 254.662Z" fill="#F7F7F7"/>
<path id="Vector_10" d="M182.505 254.662H162.435L203.117 310.893L159 371.825H178.889L213.242 324.815L247.415 371.825H267.485L223.368 310.893L264.049 254.662H244.16L213.242 297.151L182.505 254.662Z" stroke="#F7F7F7" stroke-linecap="round" stroke-linejoin="round"/>
</g>
<g id="xbox-x2" filter="url(#filter1_ddd_13_59)">
<path id="Vector_11" d="M507.778 254.662H487.709L528.391 310.893L484.273 371.825H504.162L538.516 324.815L572.688 371.825H592.76L548.641 310.893L589.32 254.662H569.434L538.516 297.151L507.778 254.662Z" fill="#F7F7F7"/>
<path id="Vector_12" d="M507.778 254.662H487.709L528.391 310.893L484.273 371.825H504.162L538.516 324.815L572.688 371.825H592.76L548.641 310.893L589.32 254.662H569.434L538.516 297.151L507.778 254.662Z" stroke="#F7F7F7" stroke-linecap="round" stroke-linejoin="round"/>
</g>
<g id="xbox-b" filter="url(#filter2_ddd_13_59)">
<path id="Vector_13" fill-rule="evenodd" clip-rule="evenodd" d="M251 319.5L261.5 305H277V255H331.5C371.5 255 376 299.5 351 311C382 321 377 372.5 335.5 372.5H277V319.5H251ZM295 305V270.5H331.5C355.5 270.5 353.5 305 331.5 305H295ZM295 356.5V320.5H334.5C359.5 320.5 359 356 334.5 356.5H295Z" fill="#F7F7F7"/>
<path id="Vector_14" fill-rule="evenodd" clip-rule="evenodd" d="M251 319.5L261.5 305H277V255H331.5C371.5 255 376 299.5 351 311C382 321 377 372.5 335.5 372.5H277V319.5H251ZM295 305V270.5H331.5C355.5 270.5 353.5 305 331.5 305H295ZM295 356.5V320.5H334.5C359.5 320.5 359 356 334.5 356.5H295Z" stroke="#F7F7F7" stroke-linecap="round" stroke-linejoin="round"/>
</g>
<g id="xbox-o" filter="url(#filter3_ddd_13_59)">
<path id="Vector_15" fill-rule="evenodd" clip-rule="evenodd" d="M377 312.5C378 267.5 408 251 436 251C466.5 251.5 492 272.5 492 312.5C491 358.5 461.5 373 436 374C392.5 373 378 341.5 377 312.5ZM436 267C415 265.923 396 279 395 312.5C395.5 337.5 407 357 436 357.5C458.5 355.5 472 339.5 472.5 312.5C472.5 282.5 455.5 268 436 267Z" fill="#F7F7F7"/>
<path id="Vector_16" fill-rule="evenodd" clip-rule="evenodd" d="M377 312.5C378 267.5 408 251 436 251C466.5 251.5 492 272.5 492 312.5C491 358.5 461.5 373 436 374C392.5 373 378 341.5 377 312.5ZM436 267C415 265.923 396 279 395 312.5C395.5 337.5 407 357 436 357.5C458.5 355.5 472 339.5 472.5 312.5C472.5 282.5 455.5 268 436 267Z" stroke="#F7F7F7"/>
</g>
</g>
<defs>
<filter id="filter0_dd_13_59" x="262.643" y="16.5" width="225.204" height="226.286" filterUnits="userSpaceOnUse" color-interpolation-filters="sRGB">
<feFlood flood-opacity="0" result="BackgroundImageFix"/>
<feColorMatrix in="SourceAlpha" type="matrix" values="0 0 0 0 0 0 0 0 0 0 0 0 0 0 0 0 0 0 127 0" result="hardAlpha"/>
<feOffset dy="3"/>
<feGaussianBlur stdDeviation="7.5"/>
<feColorMatrix type="matrix" values="0 0 0 0 0 0 0 0 0 0 0 0 0 0 0 0 0 0 0.95 0"/>
<feBlend mode="normal" in2="BackgroundImageFix" result="effect1_dropShadow_13_59"/>
<feColorMatrix in="SourceAlpha" type="matrix" values="0 0 0 0 0 0 0 0 0 0 0 0 0 0 0 0 0 0 127 0" result="hardAlpha"/>
<feOffset dy="-3"/>
<feGaussianBlur stdDeviation="3.5"/>
<feComposite in2="hardAlpha" operator="out"/>
<feColorMatrix type="matrix" values="0 0 0 0 0.729167 0 0 0 0 0.729167 0 0 0 0 0.729167 0 0 0 0.7 0"/>
<feBlend mode="normal" in2="effect1_dropShadow_13_59" result="effect2_dropShadow_13_59"/>
<feBlend mode="normal" in="SourceGraphic" in2="effect2_dropShadow_13_59" result="shape"/>
</filter>
<filter id="filter1_ddd_13_59" x="233.773" y="4.16226" width="609.487" height="618.163" filterUnits="userSpaceOnUse" color-interpolation-filters="sRGB">
<feFlood flood-opacity="0" result="BackgroundImageFix"/>
<feColorMatrix in="SourceAlpha" type="matrix" values="0 0 0 0 0 0 0 0 0 0 0 0 0 0 0 0 0 0 127 0" result="hardAlpha"/>
<feOffset dy="3"/>
<feGaussianBlur stdDeviation="7.5"/>
<feColorMatrix type="matrix" values="0 0 0 0 0 0 0 0 0 0 0 0 0 0 0 0 0 0 0.7 0"/>
<feBlend mode="normal" in2="BackgroundImageFix" result="effect1_dropShadow_13_59"/>
<feColorMatrix in="SourceAlpha" type="matrix" values="0 0 0 0 0 0 0 0 0 0 0 0 0 0 0 0 0 0 127 0" result="hardAlpha"/>
<feOffset/>
<feGaussianBlur stdDeviation="125"/>
<feColorMatrix type="matrix" values="0 0 0 0 0.968627 0 0 0 0 0.968627 0 0 0 0 0.968627 0 0 0 0.3 0"/>
<feBlend mode="normal" in2="effect1_dropShadow_13_59" result="effect2_dropShadow_13_59"/>
<feColorMatrix in="SourceAlpha" type="matrix" values="0 0 0 0 0 0 0 0 0 0 0 0 0 0 0 0 0 0 127 0" result="hardAlpha"/>
<feOffset dy="-3"/>
<feGaussianBlur stdDeviation="3.5"/>
<feComposite in2="hardAlpha" operator="out"/>
<feColorMatrix type="matrix" values="0 0 0 0 0.729412 0 0 0 0 0.729412 0 0 0 0 0.729412 0 0 0 0.7 0"/>
<feBlend mode="normal" in2="effect2_dropShadow_13_59" result="effect3_dropShadow_13_59"/>
<feBlend mode="normal" in="SourceGraphic" in2="effect3_dropShadow_13_59" result="shape"/>
</filter>
<filter id="filter2_ddd_13_59" x="0.5" y="4.50027" width="620.98" height="618.5" filterUnits="userSpaceOnUse" color-interpolation-filters="sRGB">
<feFlood flood-opacity="0" result="BackgroundImageFix"/>
<feColorMatrix in="SourceAlpha" type="matrix" values="0 0 0 0 0 0 0 0 0 0 0 0 0 0 0 0 0 0 127 0" result="hardAlpha"/>
<feOffset dy="3"/>
<feGaussianBlur stdDeviation="7.5"/>
<feColorMatrix type="matrix" values="0 0 0 0 0 0 0 0 0 0 0 0 0 0 0 0 0 0 0.7 0"/>
<feBlend mode="normal" in2="BackgroundImageFix" result="effect1_dropShadow_13_59"/>
<feColorMatrix in="SourceAlpha" type="matrix" values="0 0 0 0 0 0 0 0 0 0 0 0 0 0 0 0 0 0 127 0" result="hardAlpha"/>
<feOffset/>
<feGaussianBlur stdDeviation="125"/>
<feColorMatrix type="matrix" values="0 0 0 0 1 0 0 0 0 1 0 0 0 0 1 0 0 0 0.3 0"/>
<feBlend mode="normal" in2="effect1_dropShadow_13_59" result="effect2_dropShadow_13_59"/>
<feColorMatrix in="SourceAlpha" type="matrix" values="0 0 0 0 0 0 0 0 0 0 0 0 0 0 0 0 0 0 127 0" result="hardAlpha"/>
<feOffset dy="-3"/>
<feGaussianBlur stdDeviation="3.5"/>
<feComposite in2="hardAlpha" operator="out"/>
<feColorMatrix type="matrix" values="0 0 0 0 0.729412 0 0 0 0 0.729412 0 0 0 0 0.729412 0 0 0 0.7 0"/>
<feBlend mode="normal" in2="effect2_dropShadow_13_59" result="effect3_dropShadow_13_59"/>
<feBlend mode="normal" in="SourceGraphic" in2="effect3_dropShadow_13_59" result="shape"/>
</filter>
<filter id="filter3_ddd_13_59" x="126.5" y="0.500275" width="616" height="624" filterUnits="userSpaceOnUse" color-interpolation-filters="sRGB">
<feFlood flood-opacity="0" result="BackgroundImageFix"/>
<feColorMatrix in="SourceAlpha" type="matrix" values="0 0 0 0 0 0 0 0 0 0 0 0 0 0 0 0 0 0 127 0" result="hardAlpha"/>
<feOffset dy="3"/>
<feGaussianBlur stdDeviation="7.5"/>
<feColorMatrix type="matrix" values="0 0 0 0 0 0 0 0 0 0 0 0 0 0 0 0 0 0 0.7 0"/>
<feBlend mode="normal" in2="BackgroundImageFix" result="effect1_dropShadow_13_59"/>
<feColorMatrix in="SourceAlpha" type="matrix" values="0 0 0 0 0 0 0 0 0 0 0 0 0 0 0 0 0 0 127 0" result="hardAlpha"/>
<feOffset/>
<feGaussianBlur stdDeviation="125"/>
<feColorMatrix type="matrix" values="0 0 0 0 1 0 0 0 0 1 0 0 0 0 1 0 0 0 0.3 0"/>
<feBlend mode="normal" in2="effect1_dropShadow_13_59" result="effect2_dropShadow_13_59"/>
<feColorMatrix in="SourceAlpha" type="matrix" values="0 0 0 0 0 0 0 0 0 0 0 0 0 0 0 0 0 0 127 0" result="hardAlpha"/>
<feOffset dy="-3"/>
<feGaussianBlur stdDeviation="3.5"/>
<feComposite in2="hardAlpha" operator="out"/>
<feColorMatrix type="matrix" values="0 0 0 0 0.729412 0 0 0 0 0.729412 0 0 0 0 0.729412 0 0 0 0.7 0"/>
<feBlend mode="normal" in2="effect2_dropShadow_13_59" result="effect3_dropShadow_13_59"/>
<feBlend mode="normal" in="SourceGraphic" in2="effect3_dropShadow_13_59" result="shape"/>
</filter>
</defs>
</svg>
